<svg width="81" height="18" viewBox="0 0 81 18" fill="none" xmlns="http://www.w3.org/2000/svg">
<mask id="mask0_274_1267" style="mask-type:alpha" maskUnits="userSpaceOnUse" x="0" y="0" width="22" height="18">
<path fill-rule="evenodd" clip-rule="evenodd" d="M8.9387 0.298662C6.09704 0.901437 4.21798 2.21254 4.21798 2.21254L5.69181 1.68618C5.98644 1.58095 7.53566 1.11552 9.5404 1.02542C11.5474 0.935226 13.8918 1.22602 15.8989 2.50301C17.2026 3.33249 17.8633 4.38976 18.0724 5.49137C18.1389 5.85172 18.2842 6.95053 17.696 8.37226C17.5339 8.76406 17.4024 9.04671 17.2872 9.26471L17.2875 9.26499C17.2859 9.26779 17.2843 9.27059 17.2826 9.2734C17.1451 9.53273 17.0306 9.69997 16.9144 9.85183C15.3261 12.1289 12.2649 14.1044 8.16739 14.4581C4.81674 14.5785 3.88151 12.9527 3.80118 12.032C3.67226 11.0314 4.92868 9.27077 7.21264 8.35761C9.04472 7.69087 11.0539 7.11813 13.5013 7.49872C14.8571 7.68335 16.2834 8.40313 16.7187 8.71319C17.1427 8.27499 17.7274 7.18974 17.672 6.33032C16.8876 5.72039 14.9329 5.02819 13.5484 4.85174C10.5862 4.3911 7.72485 5.14192 5.55056 6.18954C2.11095 7.84683 -0.113801 10.8324 0.511372 13.4303C1.15045 16.0861 4.31329 17.6936 7.93185 17.5363C11.7159 17.2097 15.2425 15.0113 17.3951 12.8877L17.4012 12.8748C17.9196 12.37 18.6103 11.3615 18.973 10.8101C19.8686 9.44819 20.0372 8.40413 20.0372 8.40413C20.0301 8.45092 20.0224 8.49787 20.0141 8.54492C20.2666 7.2589 20.1622 6.12243 20.0339 5.5821C19.5445 3.80366 18.5034 2.38331 17.2601 1.57549C14.7047 -0.0504311 11.7804 -0.304114 8.9387 0.298662ZM17.4803 14.2963C19.51 12.1608 20.1719 9.84924 20.3506 8.73549C20.5555 9.09396 20.7427 9.5745 20.965 10.3968C21.4599 12.7039 20.3515 14.5132 18.4643 15.9344C16.5771 17.3556 12.1772 18 12.1772 18C12.6213 17.6776 15.8926 16.0909 17.4803 14.2963Z" fill="black"/>
</mask>
<g mask="url(#mask0_274_1267)">
<rect x="0.40625" width="20.6525" height="19.7798" fill="white"/>
</g>
<path d="M29.1921 12.7734C29.1921 13.1797 29.3406 13.5 29.6375 13.7344C29.9343 13.9688 30.2859 14.0859 30.6921 14.0859C31.1869 14.0859 31.6661 13.9714 32.1296 13.7422C32.9109 13.362 33.3015 12.7396 33.3015 11.875V10.7422C33.1296 10.8516 32.9083 10.9427 32.6375 11.0156C32.3666 11.0885 32.101 11.1406 31.8406 11.1719L30.989 11.2812C30.4786 11.349 30.0958 11.4557 29.8406 11.6016C29.4083 11.8464 29.1921 12.237 29.1921 12.7734ZM32.5984 9.92969C32.9213 9.88802 33.1375 9.7526 33.2468 9.52344C33.3093 9.39844 33.3406 9.21875 33.3406 8.98438C33.3406 8.50521 33.1687 8.15885 32.825 7.94531C32.4864 7.72656 31.9994 7.61719 31.364 7.61719C30.6296 7.61719 30.1088 7.8151 29.8015 8.21094C29.6296 8.42969 29.5177 8.75521 29.4656 9.1875H28.1531C28.1791 8.15625 28.5125 7.4401 29.1531 7.03906C29.7989 6.63281 30.5463 6.42969 31.3953 6.42969C32.3796 6.42969 33.1791 6.61719 33.7937 6.99219C34.4031 7.36719 34.7078 7.95052 34.7078 8.74219V13.5625C34.7078 13.7083 34.7364 13.8255 34.7937 13.9141C34.8562 14.0026 34.9838 14.0469 35.1765 14.0469C35.239 14.0469 35.3093 14.0443 35.3875 14.0391C35.4656 14.0286 35.5489 14.0156 35.6375 14V15.0391C35.4187 15.1016 35.252 15.1406 35.1375 15.1562C35.0229 15.1719 34.8666 15.1797 34.6687 15.1797C34.1843 15.1797 33.8328 15.0078 33.614 14.6641C33.4994 14.4818 33.4187 14.224 33.3718 13.8906C33.0854 14.2656 32.6739 14.5911 32.1375 14.8672C31.601 15.1432 31.0098 15.2812 30.364 15.2812C29.588 15.2812 28.9526 15.0469 28.4578 14.5781C27.9682 14.1042 27.7234 13.513 27.7234 12.8047C27.7234 12.0286 27.9656 11.4271 28.45 11C28.9343 10.5729 29.5697 10.3099 30.3562 10.2109L32.5984 9.92969ZM37.7078 6.63281L39.9421 13.4453L42.2781 6.63281H43.8171L40.6609 15H39.1609L36.075 6.63281H37.7078ZM48.5046 6.44531C49.0984 6.44531 49.6739 6.58594 50.2312 6.86719C50.7885 7.14323 51.213 7.5026 51.5046 7.94531C51.7859 8.36719 51.9734 8.85938 52.0671 9.42188C52.1505 9.80729 52.1921 10.4219 52.1921 11.2656H46.0593C46.0854 12.1146 46.2859 12.7969 46.6609 13.3125C47.0359 13.8229 47.6166 14.0781 48.4031 14.0781C49.1375 14.0781 49.7234 13.8359 50.1609 13.3516C50.4109 13.0703 50.588 12.7448 50.6921 12.375H52.075C52.0385 12.6823 51.9161 13.026 51.7078 13.4062C51.5046 13.7812 51.2755 14.0885 51.0203 14.3281C50.5932 14.7448 50.0645 15.026 49.4343 15.1719C49.0958 15.2552 48.713 15.2969 48.2859 15.2969C47.2442 15.2969 46.3614 14.9193 45.6375 14.1641C44.9135 13.4036 44.5515 12.3411 44.5515 10.9766C44.5515 9.63281 44.9161 8.54167 45.6453 7.70312C46.3744 6.86458 47.3276 6.44531 48.5046 6.44531ZM50.7468 10.1484C50.6895 9.53906 50.5567 9.05208 50.3484 8.6875C49.963 8.01042 49.3197 7.67188 48.4187 7.67188C47.7729 7.67188 47.2312 7.90625 46.7937 8.375C46.3562 8.83854 46.1244 9.42969 46.0984 10.1484H50.7468ZM53.9265 6.63281H55.2625V7.82031C55.6583 7.33073 56.0776 6.97917 56.5203 6.76562C56.963 6.55208 57.4552 6.44531 57.9968 6.44531C59.1843 6.44531 59.9864 6.85938 60.4031 7.6875C60.6322 8.14062 60.7468 8.78906 60.7468 9.63281V15H59.3171V9.72656C59.3171 9.21615 59.2416 8.80469 59.0906 8.49219C58.8406 7.97135 58.3875 7.71094 57.7312 7.71094C57.3979 7.71094 57.1244 7.74479 56.9109 7.8125C56.5255 7.92708 56.1869 8.15625 55.8953 8.5C55.6609 8.77604 55.5072 9.0625 55.4343 9.35938C55.3666 9.65104 55.3328 10.0703 55.3328 10.6172V15H53.9265V6.63281ZM64.239 6.63281V12.1875C64.239 12.6146 64.3067 12.9635 64.4421 13.2344C64.6921 13.7344 65.1583 13.9844 65.8406 13.9844C66.8197 13.9844 67.4864 13.5469 67.8406 12.6719C68.0333 12.2031 68.1296 11.5599 68.1296 10.7422V6.63281H69.5359V15H68.2078L68.2234 13.7656C68.0411 14.0833 67.8145 14.3516 67.5437 14.5703C67.0072 15.0078 66.3562 15.2266 65.5906 15.2266C64.3979 15.2266 63.5854 14.8281 63.1531 14.0312C62.9187 13.6042 62.8015 13.0339 62.8015 12.3203V6.63281H64.239ZM75.2234 6.44531C75.8171 6.44531 76.3927 6.58594 76.95 6.86719C77.5072 7.14323 77.9317 7.5026 78.2234 7.94531C78.5046 8.36719 78.6921 8.85938 78.7859 9.42188C78.8692 9.80729 78.9109 10.4219 78.9109 11.2656H72.7781C72.8041 12.1146 73.0046 12.7969 73.3796 13.3125C73.7546 13.8229 74.3354 14.0781 75.1218 14.0781C75.8562 14.0781 76.4421 13.8359 76.8796 13.3516C77.1296 13.0703 77.3067 12.7448 77.4109 12.375H78.7937C78.7572 12.6823 78.6348 13.026 78.4265 13.4062C78.2234 13.7812 77.9942 14.0885 77.739 14.3281C77.3119 14.7448 76.7833 15.026 76.1531 15.1719C75.8145 15.2552 75.4317 15.2969 75.0046 15.2969C73.963 15.2969 73.0802 14.9193 72.3562 14.1641C71.6322 13.4036 71.2703 12.3411 71.2703 10.9766C71.2703 9.63281 71.6348 8.54167 72.364 7.70312C73.0932 6.86458 74.0463 6.44531 75.2234 6.44531ZM77.4656 10.1484C77.4083 9.53906 77.2755 9.05208 77.0671 8.6875C76.6817 8.01042 76.0385 7.67188 75.1375 7.67188C74.4916 7.67188 73.95 7.90625 73.5125 8.375C73.075 8.83854 72.8432 9.42969 72.8171 10.1484H77.4656Z" fill="white"/>
</svg>
