<svg width="157" height="28" viewBox="0 0 157 28" fill="none" xmlns="http://www.w3.org/2000/svg">
<path d="M4.55563 20.2049C4.55563 21.4447 5.00864 22.4222 5.91465 23.1375C6.82067 23.8528 7.89358 24.2104 9.13339 24.2104C10.6434 24.2104 12.1058 23.8607 13.5204 23.1614C15.9047 22.001 17.0968 20.1016 17.0968 17.463V14.0059C16.5722 14.3396 15.8967 14.6178 15.0702 14.8403C14.2436 15.0629 13.433 15.2218 12.6382 15.3172L10.0394 15.651C8.48169 15.8576 7.31341 16.1835 6.53456 16.6285C5.21527 17.3756 4.55563 18.5677 4.55563 20.2049ZM14.951 11.5262C15.9364 11.3991 16.5961 10.9858 16.9299 10.2864C17.1206 9.90494 17.216 9.35657 17.216 8.64129C17.216 7.17895 16.6915 6.12194 15.6424 5.47024C14.6092 4.80265 13.123 4.46886 11.1838 4.46886C8.94265 4.46886 7.35315 5.07287 6.41535 6.28089C5.89081 6.94848 5.54907 7.94191 5.39012 9.2612H1.38458C1.46406 6.11399 2.48134 3.92843 4.43642 2.70452C6.4074 1.46471 8.68833 0.844803 11.2792 0.844803C14.2834 0.844803 16.7232 1.41702 18.5989 2.56146C20.4586 3.7059 21.3884 5.48614 21.3884 7.90218V22.613C21.3884 23.058 21.4758 23.4157 21.6507 23.6859C21.8414 23.9561 22.2309 24.0912 22.819 24.0912C23.0097 24.0912 23.2243 24.0833 23.4627 24.0674C23.7011 24.0356 23.9555 23.9958 24.2257 23.9482V27.1192C23.5581 27.31 23.0494 27.4292 22.6998 27.4768C22.3501 27.5245 21.8732 27.5484 21.2692 27.5484C19.791 27.5484 18.7181 27.0238 18.0505 25.9748C17.7008 25.4184 17.4544 24.6316 17.3114 23.6144C16.4371 24.7588 15.1814 25.7522 13.5442 26.5947C11.9071 27.4371 10.103 27.8583 8.132 27.8583C5.76365 27.8583 3.82446 27.1431 2.31444 25.7125C0.820311 24.2661 0.0732471 22.462 0.0732471 20.3003C0.0732471 17.9319 0.812364 16.096 2.2906 14.7927C3.76883 13.4893 5.70802 12.6866 8.10816 12.3846L14.951 11.5262ZM30.5439 1.46471L37.3629 22.2553L44.4918 1.46471H49.1887L39.5564 27H34.9786L25.5609 1.46471H30.5439ZM63.4942 0.892488C65.3063 0.892488 67.0627 1.32165 68.7634 2.17998C70.4642 3.02242 71.7596 4.11917 72.6497 5.47024C73.5081 6.75774 74.0803 8.25981 74.3664 9.97647C74.6207 11.1527 74.7479 13.0283 74.7479 15.6033H56.0315C56.111 18.1942 56.723 20.2764 57.8674 21.85C59.0118 23.4077 60.7841 24.1866 63.1843 24.1866C65.4255 24.1866 67.2137 23.4475 68.5488 21.9692C69.3118 21.1109 69.8522 20.1175 70.1701 18.9889H74.3902C74.279 19.9267 73.9054 20.9758 73.2697 22.1361C72.6497 23.2806 71.9504 24.2184 71.1715 24.9495C69.8681 26.2211 68.2548 27.0795 66.3315 27.5245C65.2983 27.7789 64.13 27.906 62.8266 27.906C59.6476 27.906 56.9534 26.7536 54.744 24.4489C52.5346 22.1282 51.4299 18.8856 51.4299 14.7211C51.4299 10.6202 52.5426 7.29022 54.7679 4.73113C56.9932 2.17203 59.902 0.892488 63.4942 0.892488ZM70.337 12.1938C70.1622 10.3341 69.7569 8.84793 69.1211 7.73528C67.9448 5.66893 65.9818 4.63576 63.232 4.63576C61.261 4.63576 59.6079 5.35103 58.2727 6.78158C56.9376 8.19623 56.2302 10.0003 56.1508 12.1938H70.337ZM80.0409 1.46471H84.118V5.08876C85.326 3.59464 86.6055 2.52172 87.9566 1.87003C89.3077 1.21834 90.8098 0.892488 92.4628 0.892488C96.0869 0.892488 98.5347 2.15614 99.8063 4.68344C100.506 6.06631 100.855 8.04523 100.855 10.6202V27H96.4922V10.9063C96.4922 9.34862 96.2617 8.09292 95.8008 7.13922C95.0378 5.54972 93.655 4.75497 91.6522 4.75497C90.6349 4.75497 89.8004 4.85829 89.1487 5.06492C87.9725 5.41461 86.9393 6.11399 86.0492 7.16306C85.3339 8.00549 84.865 8.87972 84.6425 9.78573C84.4359 10.6759 84.3326 11.9554 84.3326 13.6244V27H80.0409V1.46471ZM111.513 1.46471V18.4167C111.513 19.7201 111.72 20.7851 112.133 21.6116C112.896 23.1375 114.318 23.9005 116.401 23.9005C119.389 23.9005 121.424 22.5653 122.504 19.8949C123.092 18.4644 123.387 16.5014 123.387 14.0059V1.46471H127.678V27H123.625L123.673 23.2329C123.116 24.2025 122.425 25.0211 121.598 25.6887C119.961 27.0238 117.974 27.6914 115.638 27.6914C111.998 27.6914 109.518 26.4755 108.199 24.0435C107.484 22.7401 107.126 20.9996 107.126 18.822V1.46471H111.513ZM145.035 0.892488C146.848 0.892488 148.604 1.32165 150.305 2.17998C152.005 3.02242 153.301 4.11917 154.191 5.47024C155.049 6.75774 155.622 8.25981 155.908 9.97647C156.162 11.1527 156.289 13.0283 156.289 15.6033H137.573C137.652 18.1942 138.264 20.2764 139.409 21.85C140.553 23.4077 142.325 24.1866 144.726 24.1866C146.967 24.1866 148.755 23.4475 150.09 21.9692C150.853 21.1109 151.393 20.1175 151.711 18.9889H155.932C155.82 19.9267 155.447 20.9758 154.811 22.1361C154.191 23.2806 153.492 24.2184 152.713 24.9495C151.409 26.2211 149.796 27.0795 147.873 27.5245C146.84 27.7789 145.671 27.906 144.368 27.906C141.189 27.906 138.495 26.7536 136.285 24.4489C134.076 22.1282 132.971 18.8856 132.971 14.7211C132.971 10.6202 134.084 7.29022 136.309 4.73113C138.534 2.17203 141.443 0.892488 145.035 0.892488ZM151.878 12.1938C151.703 10.3341 151.298 8.84793 150.662 7.73528C149.486 5.66893 147.523 4.63576 144.773 4.63576C142.802 4.63576 141.149 5.35103 139.814 6.78158C138.479 8.19623 137.771 10.0003 137.692 12.1938H151.878Z" fill="white"/>
</svg>
