<svg width="227" height="231" viewBox="0 0 227 231" fill="none" xmlns="http://www.w3.org/2000/svg">
<path d="M211.004 152.737C214.876 127.674 226.226 39.093 226.226 39.093C227.783 26.841 218.43 20.015 209.176 20.015C201.518 20.015 193.928 24.689 192.64 34.828L185.035 83.832C184.684 86.443 182.361 88.269 180.029 88.269C179.044 88.269 178.057 87.944 177.216 87.215C173.566 84.054 168.637 82.669 163.886 82.669C159.544 82.669 155.351 83.824 152.416 85.838C151.822 86.244 151.148 86.425 150.46 86.425C149.071 86.425 147.625 85.69 146.666 84.597C141.963 79.241 136.593 77.276 131.543 77.275C126.77 77.275 122.283 79.031 118.915 81.338C118.258 81.789 117.508 81.99 116.802 81.99C114.345 81.99 111.897 79.554 111.897 76.776V16.839C111.897 5.613 103.316 0 94.897 0C86.478 0 77.897 5.613 77.897 16.839V141C77.897 146.952 73.205 151.24 67.876 151.24C66.196 151.24 64.574 150.814 62.947 149.881C51.025 143.037 37.928 137.274 24.155 131.88C21.587 130.875 19.129 130.421 16.798 130.42C1.025 130.418 -7.843 151.204 9.605 162.434C29.631 175.323 55.029 182.376 64.904 196.954C70.988 205.934 79.884 221.81 83.297 228.073C84.167 229.672 85.845 230.444 87.665 230.444H176.713C179.055 230.444 181.08 229.03 181.572 226.739L185.626 208C185.843 206.992 186.378 206.143 187.13 205.439C199.387 193.955 207.25 177.037 211.004 152.737Z" fill="black"/>
</svg>
