<svg width="20" height="22" viewBox="0 0 20 22" fill="none" xmlns="http://www.w3.org/2000/svg">
<path d="M19.9727 9.95841C19.9727 9.40107 19.7463 8.86763 19.3455 8.4804L11.9174 1.30499C11.4901 0.93895 10.922 0.737305 10.3177 0.737305C9.71334 0.737305 9.14521 0.938789 8.71771 1.30483L1.28984 8.48041C0.888998 8.86763 0.662628 9.40106 0.662628 9.95838L0.662628 19.5133C0.662628 20.7633 1.85045 21.7803 3.31072 21.7803H7.23288C7.63039 21.7803 7.95289 21.5043 7.95289 21.1638V16.2113C7.95289 15.6409 8.49477 15.1769 9.16096 15.1769H11.4744C12.1406 15.1769 12.6824 15.6409 12.6824 16.2113V21.1638C12.6824 21.5043 13.0048 21.7803 13.4024 21.7803H17.3246C18.7849 21.7803 19.9727 20.7633 19.9727 19.5133V9.95841Z" fill="#4F4F4F"/>
</svg>
