<svg width="21" height="22" viewBox="0 0 21 22" fill="none" xmlns="http://www.w3.org/2000/svg">
<path d="M20.0794 9.35611C20.0794 8.79877 19.853 8.26533 19.4521 7.87811L12.0241 0.702699C11.5968 0.336655 11.0287 0.13501 10.4244 0.13501C9.82003 0.13501 9.2519 0.336494 8.8244 0.702538L1.39653 7.87811C0.995687 8.26534 0.769318 8.79876 0.769318 9.35609L0.769318 18.911C0.769318 20.161 1.95714 21.178 3.41741 21.178H7.33957C7.73707 21.178 8.05958 20.902 8.05958 20.5615V15.609C8.05958 15.0386 8.60146 14.5746 9.26765 14.5746H11.5811C12.2472 14.5746 12.7891 15.0386 12.7891 15.609V20.5615C12.7891 20.902 13.1114 21.178 13.5091 21.178H17.4313C18.8916 21.178 20.0794 20.161 20.0794 18.911V9.35611Z" fill="#C4C4C4"/>
</svg>
