<svg width="19" height="19" viewBox="0 0 19 19" fill="none" xmlns="http://www.w3.org/2000/svg">
<path d="M4.61399 9.73679C4.61324 8.88323 4.84411 8.04546 5.28199 7.31278V4.30078H2.26999C1.07444 5.86095 0.426514 7.77171 0.426514 9.73728C0.426514 11.7029 1.07444 13.6136 2.26999 15.1738H5.28199V12.1618C4.84393 11.4288 4.61306 10.5907 4.61399 9.73679Z" fill="#FBBD00"/>
<path d="M9.36099 14.4824L7.267 16.5764L9.36099 18.6703C11.3272 18.6759 13.2395 18.0275 14.797 16.8274V13.8184H11.788C11.0535 14.2541 10.215 14.4835 9.36099 14.4824Z" fill="#0F9D58"/>
<path d="M5.28199 12.1621L2.26999 15.1741C2.50839 15.4842 2.76659 15.7784 3.04299 16.0551C3.87066 16.8872 4.85514 17.5468 5.93946 17.9958C7.02377 18.4449 8.18638 18.6744 9.35999 18.6711V14.4851C8.53724 14.4844 7.72879 14.2699 7.0139 13.8627C6.299 13.4555 5.7022 12.8695 5.28199 12.1621Z" fill="#31AA52"/>
<path d="M18.293 9.73743C18.2931 9.1948 18.2443 8.65327 18.147 8.11943L18.068 7.69043H9.35999V11.8774H13.598C13.1924 12.6846 12.5639 13.3586 11.787 13.8194L14.796 16.8284C15.106 16.59 15.4003 16.3318 15.677 16.0554C16.5092 15.2276 17.1689 14.243 17.6179 13.1585C18.067 12.074 18.2964 10.9112 18.293 9.73743Z" fill="#3C79E6"/>
<path d="M12.717 6.38174L13.087 6.75174L16.048 3.79074L15.678 3.42074C14.8504 2.5885 13.866 1.92868 12.7816 1.47947C11.6973 1.03026 10.5347 0.800586 9.36099 0.803743L7.267 2.89774L9.36099 4.99174C9.9845 4.99003 10.6022 5.11199 11.1782 5.35059C11.7543 5.58918 12.2773 5.93966 12.717 6.38174Z" fill="#CF2D48"/>
<path d="M9.35999 4.99173V0.803733C8.18722 0.801107 7.02557 1.03094 5.94216 1.47996C4.85875 1.92898 3.87507 2.58827 3.04799 3.41973C2.7716 3.69642 2.51339 3.9907 2.27499 4.30073L5.28699 7.31273C5.70702 6.60649 6.30314 6.02134 7.01707 5.61451C7.731 5.20767 8.53829 4.99309 9.35999 4.99173Z" fill="#EB4132"/>
</svg>
